<mxfile host="app.diagrams.net" agent="Mozilla/5.0 (Windows NT 10.0; Win64; x64) AppleWebKit/537.36 (KHTML, like Gecko) Chrome/132.0.0.0 Safari/537.36" version="26.0.7">
  <diagram name="High-Level Design" id="ZBv1_KpZOwENfsu05lCq">
    <mxGraphModel dx="2625" dy="1490" grid="1" gridSize="10" guides="1" tooltips="1" connect="1" arrows="1" fold="1" page="1" pageScale="1" pageWidth="1200" pageHeight="1920" math="0" shadow="0">
      <root>
        <mxCell id="0" />
        <mxCell id="1" parent="0" />
        <mxCell id="qNN8WSwoeSZNNqFQAVAW-3" value="IoT Sensors" style="shape=ext;double=1;rounded=1;whiteSpace=wrap;html=1;fillColor=#e1d5e7;strokeColor=light-dark(#050505, #9577a3);fontFamily=Comic Sans MS;" vertex="1" parent="1">
          <mxGeometry x="520" y="200" width="120" height="80" as="geometry" />
        </mxCell>
        <mxCell id="qNN8WSwoeSZNNqFQAVAW-5" value="DNS Load Balancers" style="shape=ext;double=1;rounded=0;whiteSpace=wrap;html=1;fillColor=#ffe6cc;strokeColor=light-dark(#050505, #9577a3);fontFamily=Comic Sans MS;" vertex="1" parent="1">
          <mxGeometry x="745" y="300" width="135" height="80" as="geometry" />
        </mxCell>
        <mxCell id="qNN8WSwoeSZNNqFQAVAW-6" value="CDN" style="shape=ext;double=1;rounded=0;whiteSpace=wrap;html=1;fillColor=#ffe6cc;strokeColor=light-dark(#050505, #9577a3);fontFamily=Comic Sans MS;" vertex="1" parent="1">
          <mxGeometry x="745" y="200" width="135" height="80" as="geometry" />
        </mxCell>
        <mxCell id="qNN8WSwoeSZNNqFQAVAW-8" value="" style="endArrow=classic;html=1;rounded=0;exitX=1;exitY=0.5;exitDx=0;exitDy=0;entryX=0;entryY=0.5;entryDx=0;entryDy=0;strokeColor=light-dark(#050505, #9577a3);fontFamily=Comic Sans MS;" edge="1" parent="1" source="qNN8WSwoeSZNNqFQAVAW-3" target="qNN8WSwoeSZNNqFQAVAW-6">
          <mxGeometry width="50" height="50" relative="1" as="geometry">
            <mxPoint x="665" y="260" as="sourcePoint" />
            <mxPoint x="715" y="210" as="targetPoint" />
          </mxGeometry>
        </mxCell>
        <mxCell id="qNN8WSwoeSZNNqFQAVAW-9" value="" style="endArrow=classic;html=1;rounded=0;entryX=0;entryY=0.5;entryDx=0;entryDy=0;exitX=1;exitY=0.5;exitDx=0;exitDy=0;strokeColor=light-dark(#050505, #9577a3);fontFamily=Comic Sans MS;" edge="1" parent="1" source="qNN8WSwoeSZNNqFQAVAW-3" target="qNN8WSwoeSZNNqFQAVAW-5">
          <mxGeometry width="50" height="50" relative="1" as="geometry">
            <mxPoint x="655" y="330" as="sourcePoint" />
            <mxPoint x="705" y="280" as="targetPoint" />
            <Array as="points">
              <mxPoint x="685" y="310" />
            </Array>
          </mxGeometry>
        </mxCell>
        <mxCell id="qNN8WSwoeSZNNqFQAVAW-10" value="DNS Load Balancers" style="shape=ext;double=1;rounded=0;whiteSpace=wrap;html=1;fillColor=#f8cecc;strokeColor=light-dark(#050505, #9577a3);fontFamily=Comic Sans MS;" vertex="1" parent="1">
          <mxGeometry x="513" y="390" width="135" height="80" as="geometry" />
        </mxCell>
        <mxCell id="qNN8WSwoeSZNNqFQAVAW-11" value="DNS Load Balancers" style="shape=ext;double=1;rounded=0;whiteSpace=wrap;html=1;fillColor=#f8cecc;strokeColor=light-dark(#050505, #9577a3);fontFamily=Comic Sans MS;" vertex="1" parent="1">
          <mxGeometry x="523" y="400" width="135" height="80" as="geometry" />
        </mxCell>
        <mxCell id="qNN8WSwoeSZNNqFQAVAW-12" value="Load Balancers" style="shape=ext;double=1;rounded=0;whiteSpace=wrap;html=1;fillColor=#f8cecc;strokeColor=light-dark(#050505, #9577a3);fontFamily=Comic Sans MS;" vertex="1" parent="1">
          <mxGeometry x="533" y="410" width="135" height="80" as="geometry" />
        </mxCell>
        <mxCell id="qNN8WSwoeSZNNqFQAVAW-13" value="" style="edgeStyle=segmentEdgeStyle;endArrow=classic;html=1;curved=0;rounded=0;endSize=8;startSize=8;entryX=1;entryY=0.5;entryDx=0;entryDy=0;exitX=0.5;exitY=1;exitDx=0;exitDy=0;strokeColor=light-dark(#050505, #9577a3);fontFamily=Comic Sans MS;" edge="1" parent="1" source="qNN8WSwoeSZNNqFQAVAW-5" target="qNN8WSwoeSZNNqFQAVAW-12">
          <mxGeometry width="50" height="50" relative="1" as="geometry">
            <mxPoint x="965" y="500" as="sourcePoint" />
            <mxPoint x="605" y="440" as="targetPoint" />
            <Array as="points">
              <mxPoint x="813" y="450" />
            </Array>
          </mxGeometry>
        </mxCell>
        <mxCell id="qNN8WSwoeSZNNqFQAVAW-14" value="App Server" style="shape=ext;double=1;rounded=0;whiteSpace=wrap;html=1;fillColor=#d5e8d4;strokeColor=#000000;fontFamily=Comic Sans MS;" vertex="1" parent="1">
          <mxGeometry x="513" y="540" width="135" height="80" as="geometry" />
        </mxCell>
        <mxCell id="qNN8WSwoeSZNNqFQAVAW-15" value="App Server" style="shape=ext;double=1;rounded=0;whiteSpace=wrap;html=1;fillColor=#d5e8d4;strokeColor=#000000;fontFamily=Comic Sans MS;" vertex="1" parent="1">
          <mxGeometry x="523" y="550" width="135" height="80" as="geometry" />
        </mxCell>
        <mxCell id="qNN8WSwoeSZNNqFQAVAW-16" value="App Server" style="shape=ext;double=1;rounded=0;whiteSpace=wrap;html=1;fillColor=#d5e8d4;strokeColor=#000000;fontFamily=Comic Sans MS;" vertex="1" parent="1">
          <mxGeometry x="533" y="560" width="135" height="80" as="geometry" />
        </mxCell>
        <mxCell id="qNN8WSwoeSZNNqFQAVAW-17" value="" style="endArrow=classic;html=1;rounded=0;exitX=0.5;exitY=1;exitDx=0;exitDy=0;entryX=0.5;entryY=0;entryDx=0;entryDy=0;fontFamily=Comic Sans MS;" edge="1" parent="1" source="qNN8WSwoeSZNNqFQAVAW-12" target="qNN8WSwoeSZNNqFQAVAW-16">
          <mxGeometry width="50" height="50" relative="1" as="geometry">
            <mxPoint x="555" y="630" as="sourcePoint" />
            <mxPoint x="585" y="530" as="targetPoint" />
          </mxGeometry>
        </mxCell>
        <mxCell id="qNN8WSwoeSZNNqFQAVAW-18" value="Read API" style="strokeWidth=2;html=1;shape=mxgraph.flowchart.multi-document;whiteSpace=wrap;fillColor=#d5e8d4;strokeColor=light-dark(#000000,#446E2C);fontFamily=Comic Sans MS;" vertex="1" parent="1">
          <mxGeometry x="291.25" y="680" width="110" height="80" as="geometry" />
        </mxCell>
        <mxCell id="qNN8WSwoeSZNNqFQAVAW-19" value="Write API" style="strokeWidth=2;html=1;shape=mxgraph.flowchart.multi-document;whiteSpace=wrap;fillColor=#d5e8d4;strokeColor=light-dark(#000000,#446E2C);fontFamily=Comic Sans MS;" vertex="1" parent="1">
          <mxGeometry x="780" y="680" width="110" height="80" as="geometry" />
        </mxCell>
        <mxCell id="qNN8WSwoeSZNNqFQAVAW-20" value="" style="endArrow=classic;html=1;rounded=0;entryX=0.525;entryY=0.152;entryDx=0;entryDy=0;entryPerimeter=0;exitX=0.5;exitY=1;exitDx=0;exitDy=0;fontFamily=Comic Sans MS;" edge="1" parent="1" source="qNN8WSwoeSZNNqFQAVAW-16" target="qNN8WSwoeSZNNqFQAVAW-18">
          <mxGeometry width="50" height="50" relative="1" as="geometry">
            <mxPoint x="555" y="630" as="sourcePoint" />
            <mxPoint x="605" y="580" as="targetPoint" />
            <Array as="points">
              <mxPoint x="495" y="650" />
            </Array>
          </mxGeometry>
        </mxCell>
        <mxCell id="qNN8WSwoeSZNNqFQAVAW-21" value="" style="endArrow=classic;html=1;rounded=0;exitX=0.5;exitY=1;exitDx=0;exitDy=0;entryX=0.492;entryY=0.195;entryDx=0;entryDy=0;entryPerimeter=0;fontFamily=Comic Sans MS;" edge="1" parent="1" source="qNN8WSwoeSZNNqFQAVAW-16" target="qNN8WSwoeSZNNqFQAVAW-19">
          <mxGeometry width="50" height="50" relative="1" as="geometry">
            <mxPoint x="555" y="630" as="sourcePoint" />
            <mxPoint x="605" y="580" as="targetPoint" />
            <Array as="points">
              <mxPoint x="705" y="660" />
            </Array>
          </mxGeometry>
        </mxCell>
        <mxCell id="qNN8WSwoeSZNNqFQAVAW-27" value="Database&lt;div&gt;Cluster&lt;/div&gt;" style="shape=datastore;whiteSpace=wrap;html=1;fillColor=#b1ddf0;strokeColor=#10739e;fontFamily=Comic Sans MS;" vertex="1" parent="1">
          <mxGeometry x="425" y="840" width="97.5" height="90" as="geometry" />
        </mxCell>
        <mxCell id="qNN8WSwoeSZNNqFQAVAW-28" value="Object Storage&lt;div&gt;Cluster&lt;/div&gt;" style="shape=datastore;whiteSpace=wrap;html=1;fillColor=#b1ddf0;strokeColor=#10739e;fontFamily=Comic Sans MS;" vertex="1" parent="1">
          <mxGeometry x="640" y="840" width="95" height="90" as="geometry" />
        </mxCell>
        <mxCell id="qNN8WSwoeSZNNqFQAVAW-29" value="User Dashboard" style="shape=ext;double=1;rounded=1;whiteSpace=wrap;html=1;fillColor=#e1d5e7;strokeColor=light-dark(#050505, #9577a3);fontFamily=Comic Sans MS;" vertex="1" parent="1">
          <mxGeometry x="520" y="1160" width="120" height="80" as="geometry" />
        </mxCell>
        <mxCell id="qNN8WSwoeSZNNqFQAVAW-30" value="" style="endArrow=classic;html=1;rounded=0;exitX=0.5;exitY=0.88;exitDx=0;exitDy=0;exitPerimeter=0;entryX=0.5;entryY=0;entryDx=0;entryDy=0;fontFamily=Comic Sans MS;" edge="1" parent="1" source="qNN8WSwoeSZNNqFQAVAW-18" target="qNN8WSwoeSZNNqFQAVAW-27">
          <mxGeometry width="50" height="50" relative="1" as="geometry">
            <mxPoint x="555" y="820" as="sourcePoint" />
            <mxPoint x="605" y="770" as="targetPoint" />
          </mxGeometry>
        </mxCell>
        <mxCell id="qNN8WSwoeSZNNqFQAVAW-31" value="" style="endArrow=classic;html=1;rounded=0;exitX=0.5;exitY=0.88;exitDx=0;exitDy=0;exitPerimeter=0;entryX=0.5;entryY=0;entryDx=0;entryDy=0;fontFamily=Comic Sans MS;" edge="1" parent="1" source="qNN8WSwoeSZNNqFQAVAW-18" target="qNN8WSwoeSZNNqFQAVAW-28">
          <mxGeometry width="50" height="50" relative="1" as="geometry">
            <mxPoint x="555" y="820" as="sourcePoint" />
            <mxPoint x="605" y="770" as="targetPoint" />
          </mxGeometry>
        </mxCell>
        <mxCell id="qNN8WSwoeSZNNqFQAVAW-32" value="" style="endArrow=classic;html=1;rounded=0;entryX=0.5;entryY=0;entryDx=0;entryDy=0;exitX=0.5;exitY=0.88;exitDx=0;exitDy=0;exitPerimeter=0;fontFamily=Comic Sans MS;" edge="1" parent="1" source="qNN8WSwoeSZNNqFQAVAW-19" target="qNN8WSwoeSZNNqFQAVAW-27">
          <mxGeometry width="50" height="50" relative="1" as="geometry">
            <mxPoint x="555" y="820" as="sourcePoint" />
            <mxPoint x="605" y="770" as="targetPoint" />
          </mxGeometry>
        </mxCell>
        <mxCell id="qNN8WSwoeSZNNqFQAVAW-33" value="" style="endArrow=classic;html=1;rounded=0;entryX=0.5;entryY=0;entryDx=0;entryDy=0;exitX=0.5;exitY=0.88;exitDx=0;exitDy=0;exitPerimeter=0;fontFamily=Comic Sans MS;" edge="1" parent="1" source="qNN8WSwoeSZNNqFQAVAW-19" target="qNN8WSwoeSZNNqFQAVAW-28">
          <mxGeometry width="50" height="50" relative="1" as="geometry">
            <mxPoint x="555" y="820" as="sourcePoint" />
            <mxPoint x="605" y="770" as="targetPoint" />
          </mxGeometry>
        </mxCell>
        <mxCell id="qNN8WSwoeSZNNqFQAVAW-34" value="" style="rounded=0;whiteSpace=wrap;html=1;fillColor=#dae8fc;strokeColor=#6c8ebf;fontFamily=Comic Sans MS;" vertex="1" parent="1">
          <mxGeometry x="225" y="970" width="180" height="60" as="geometry" />
        </mxCell>
        <mxCell id="qNN8WSwoeSZNNqFQAVAW-38" value="" style="rounded=0;whiteSpace=wrap;html=1;fillColor=#dae8fc;strokeColor=#6c8ebf;fontFamily=Comic Sans MS;" vertex="1" parent="1">
          <mxGeometry x="235" y="980" width="180" height="60" as="geometry" />
        </mxCell>
        <mxCell id="qNN8WSwoeSZNNqFQAVAW-39" value="Predictive Analytics Service" style="rounded=0;whiteSpace=wrap;html=1;fillColor=#dae8fc;strokeColor=#6c8ebf;fontFamily=Comic Sans MS;" vertex="1" parent="1">
          <mxGeometry x="245" y="990" width="180" height="60" as="geometry" />
        </mxCell>
        <mxCell id="qNN8WSwoeSZNNqFQAVAW-40" value="" style="rounded=0;whiteSpace=wrap;html=1;fillColor=#dae8fc;strokeColor=#6c8ebf;fontFamily=Comic Sans MS;" vertex="1" parent="1">
          <mxGeometry x="695" y="970" width="260" height="60" as="geometry" />
        </mxCell>
        <mxCell id="qNN8WSwoeSZNNqFQAVAW-43" value="" style="rounded=0;whiteSpace=wrap;html=1;fillColor=#dae8fc;strokeColor=#6c8ebf;fontFamily=Comic Sans MS;" vertex="1" parent="1">
          <mxGeometry x="705" y="980" width="260" height="60" as="geometry" />
        </mxCell>
        <mxCell id="qNN8WSwoeSZNNqFQAVAW-44" value="Contamination Detection Service" style="rounded=0;whiteSpace=wrap;html=1;fillColor=#dae8fc;strokeColor=#6c8ebf;fontFamily=Comic Sans MS;" vertex="1" parent="1">
          <mxGeometry x="715" y="990" width="260" height="60" as="geometry" />
        </mxCell>
        <mxCell id="qNN8WSwoeSZNNqFQAVAW-45" value="Notification Service" style="rounded=1;whiteSpace=wrap;html=1;fillColor=#fad7ac;strokeColor=#b46504;fontFamily=Comic Sans MS;" vertex="1" parent="1">
          <mxGeometry x="465" y="1090" width="230" height="40" as="geometry" />
        </mxCell>
        <mxCell id="qNN8WSwoeSZNNqFQAVAW-47" value="" style="endArrow=classic;html=1;rounded=0;exitX=0.5;exitY=0.88;exitDx=0;exitDy=0;exitPerimeter=0;entryX=0.5;entryY=0;entryDx=0;entryDy=0;fontFamily=Comic Sans MS;" edge="1" parent="1" source="qNN8WSwoeSZNNqFQAVAW-18" target="qNN8WSwoeSZNNqFQAVAW-34">
          <mxGeometry width="50" height="50" relative="1" as="geometry">
            <mxPoint x="555" y="960" as="sourcePoint" />
            <mxPoint x="605" y="910" as="targetPoint" />
            <Array as="points">
              <mxPoint x="325" y="840" />
            </Array>
          </mxGeometry>
        </mxCell>
        <mxCell id="qNN8WSwoeSZNNqFQAVAW-48" value="" style="endArrow=classic;html=1;rounded=0;exitX=0.5;exitY=0.88;exitDx=0;exitDy=0;exitPerimeter=0;entryX=0.5;entryY=0;entryDx=0;entryDy=0;fontFamily=Comic Sans MS;" edge="1" parent="1" source="qNN8WSwoeSZNNqFQAVAW-19" target="qNN8WSwoeSZNNqFQAVAW-40">
          <mxGeometry width="50" height="50" relative="1" as="geometry">
            <mxPoint x="555" y="960" as="sourcePoint" />
            <mxPoint x="605" y="910" as="targetPoint" />
            <Array as="points">
              <mxPoint x="865" y="830" />
            </Array>
          </mxGeometry>
        </mxCell>
        <mxCell id="qNN8WSwoeSZNNqFQAVAW-49" value="Memory&lt;br&gt;Cache" style="shape=cylinder3;whiteSpace=wrap;html=1;boundedLbl=1;backgroundOutline=1;size=15;fillColor=#b1ddf0;strokeColor=#10739e;fontFamily=Comic Sans MS;" vertex="1" parent="1">
          <mxGeometry x="553.25" y="680" width="94.5" height="100" as="geometry" />
        </mxCell>
        <mxCell id="qNN8WSwoeSZNNqFQAVAW-50" value="" style="endArrow=classic;html=1;rounded=0;exitX=0.5;exitY=1;exitDx=0;exitDy=0;entryX=0;entryY=0.5;entryDx=0;entryDy=0;" edge="1" parent="1" source="qNN8WSwoeSZNNqFQAVAW-39" target="qNN8WSwoeSZNNqFQAVAW-45">
          <mxGeometry width="50" height="50" relative="1" as="geometry">
            <mxPoint x="555" y="960" as="sourcePoint" />
            <mxPoint x="605" y="910" as="targetPoint" />
          </mxGeometry>
        </mxCell>
        <mxCell id="qNN8WSwoeSZNNqFQAVAW-51" value="" style="endArrow=classic;html=1;rounded=0;exitX=0.5;exitY=1;exitDx=0;exitDy=0;entryX=1;entryY=0.5;entryDx=0;entryDy=0;" edge="1" parent="1" source="qNN8WSwoeSZNNqFQAVAW-44" target="qNN8WSwoeSZNNqFQAVAW-45">
          <mxGeometry width="50" height="50" relative="1" as="geometry">
            <mxPoint x="555" y="960" as="sourcePoint" />
            <mxPoint x="605" y="910" as="targetPoint" />
          </mxGeometry>
        </mxCell>
        <mxCell id="qNN8WSwoeSZNNqFQAVAW-52" value="" style="endArrow=classic;html=1;rounded=0;exitX=0.5;exitY=1;exitDx=0;exitDy=0;entryX=0.5;entryY=0;entryDx=0;entryDy=0;" edge="1" parent="1" source="qNN8WSwoeSZNNqFQAVAW-45" target="qNN8WSwoeSZNNqFQAVAW-29">
          <mxGeometry width="50" height="50" relative="1" as="geometry">
            <mxPoint x="555" y="960" as="sourcePoint" />
            <mxPoint x="605" y="910" as="targetPoint" />
          </mxGeometry>
        </mxCell>
        <mxCell id="qNN8WSwoeSZNNqFQAVAW-53" value="" style="endArrow=classic;html=1;rounded=0;entryX=0.5;entryY=0;entryDx=0;entryDy=0;entryPerimeter=0;exitX=0.5;exitY=1;exitDx=0;exitDy=0;" edge="1" parent="1" source="qNN8WSwoeSZNNqFQAVAW-16" target="qNN8WSwoeSZNNqFQAVAW-49">
          <mxGeometry width="50" height="50" relative="1" as="geometry">
            <mxPoint x="715" y="690" as="sourcePoint" />
            <mxPoint x="605" y="630" as="targetPoint" />
          </mxGeometry>
        </mxCell>
      </root>
    </mxGraphModel>
  </diagram>
</mxfile>
